<?xml version="1.0" encoding="UTF-8"?><svg xmlns="http://www.w3.org/2000/svg" xmlns:xlink="http://www.w3.org/1999/xlink" contentScriptType="application/ecmascript" contentStyleType="text/css" height="237px" preserveAspectRatio="none" style="width:2613px;height:237px;" version="1.1" viewBox="0 0 2613 237" width="2613px" zoomAndPan="magnify">
    <defs>
        <filter height="300%" id="ff8bs5pfnajon" width="300%" x="-1" y="-1">
            <feGaussianBlur result="blurOut" stdDeviation="2.0"/>
            <feColorMatrix in="blurOut" result="blurOut2" type="matrix" values="0 0 0 0 0 0 0 0 0 0 0 0 0 0 0 0 0 0 .4 0"/>
            <feOffset dx="4.0" dy="4.0" in="blurOut2" result="blurOut3"/>
            <feBlend in="SourceGraphic" in2="blurOut3" mode="normal"/>
        </filter>
    </defs>
    <g>
        <!--MD5=[aa8f7b917213fcc1c2766e2d59b49067]
cluster java.lang-->
        <polygon fill="#FFFFFF" filter="url(#ff8bs5pfnajon)" points="16,130,85,130,92,153.6094,188,153.6094,188,230,16,230,16,130" style="stroke:#000000;stroke-width:1.5;"/>
        <line style="stroke:#000000;stroke-width:1.5;" x1="16" x2="92" y1="153.6094" y2="153.6094"/>
        <text fill="#000000" font-family="sans-serif" font-size="14" font-weight="bold" lengthAdjust="spacing" textLength="63" x="20" y="146.5332">java.lang</text>
        <!--MD5=[447b838ee73f567880d9ab8f452fb008]
cluster com.google.zxing-->
        <polygon fill="#FFFFFF" filter="url(#ff8bs5pfnajon)" points="212,130,341,130,348,153.6094,514,153.6094,514,230,212,230,212,130" style="stroke:#000000;stroke-width:1.5;"/>
        <line style="stroke:#000000;stroke-width:1.5;" x1="212" x2="348" y1="153.6094" y2="153.6094"/>
        <text fill="#000000" font-family="sans-serif" font-size="14" font-weight="bold" lengthAdjust="spacing" textLength="123" x="216" y="146.5332">com.google.zxing</text>
        <!--MD5=[02bdc197a63dbd864b9a5c8c77ab5c92]
cluster com.google.zxing.common-->
        <polygon fill="#FFFFFF" filter="url(#ff8bs5pfnajon)" points="538,130,730,130,737,153.6094,740,153.6094,740,230,538,230,538,130" style="stroke:#000000;stroke-width:1.5;"/>
        <line style="stroke:#000000;stroke-width:1.5;" x1="538" x2="737" y1="153.6094" y2="153.6094"/>
        <text fill="#000000" font-family="sans-serif" font-size="14" font-weight="bold" lengthAdjust="spacing" textLength="186" x="542" y="146.5332">com.google.zxing.common</text>
        <!--MD5=[f6e19522d7da5be86d46ffdda9bf5ab4]
cluster com.google.zxing.qrcode-->
        <polygon fill="#FFFFFF" filter="url(#ff8bs5pfnajon)" points="764,130,947,130,954,153.6094,957,153.6094,957,230,764,230,764,130" style="stroke:#000000;stroke-width:1.5;"/>
        <line style="stroke:#000000;stroke-width:1.5;" x1="764" x2="954" y1="153.6094" y2="153.6094"/>
        <text fill="#000000" font-family="sans-serif" font-size="14" font-weight="bold" lengthAdjust="spacing" textLength="177" x="768" y="146.5332">com.google.zxing.qrcode</text>
        <!--MD5=[1bc46b1a34b0ca647becd2c54c4f48ff]
cluster gneradorqr-->
        <polygon fill="#FFFFFF" filter="url(#ff8bs5pfnajon)" points="1448,6,1534,6,1541,29.6094,1667,29.6094,1667,106,1448,106,1448,6" style="stroke:#000000;stroke-width:1.5;"/>
        <line style="stroke:#000000;stroke-width:1.5;" x1="1448" x2="1541" y1="29.6094" y2="29.6094"/>
        <text fill="#000000" font-family="sans-serif" font-size="14" font-weight="bold" lengthAdjust="spacing" textLength="80" x="1452" y="22.5332">gneradorqr</text>
        <!--MD5=[759bc1a2d1cdb88d67db1361d51b76e0]
cluster java.awt-->
        <polygon fill="#FFFFFF" filter="url(#ff8bs5pfnajon)" points="981,130,1044,130,1051,153.6094,1311,153.6094,1311,230,981,230,981,130" style="stroke:#000000;stroke-width:1.5;"/>
        <line style="stroke:#000000;stroke-width:1.5;" x1="981" x2="1051" y1="153.6094" y2="153.6094"/>
        <text fill="#000000" font-family="sans-serif" font-size="14" font-weight="bold" lengthAdjust="spacing" textLength="57" x="985" y="146.5332">java.awt</text>
        <!--MD5=[aee869b90ff369198511e3e23ca41f2a]
cluster java.awt.image-->
        <polygon fill="#FFFFFF" filter="url(#ff8bs5pfnajon)" points="1335,130,1444,130,1451,153.6094,1481,153.6094,1481,230,1335,230,1335,130" style="stroke:#000000;stroke-width:1.5;"/>
        <line style="stroke:#000000;stroke-width:1.5;" x1="1335" x2="1451" y1="153.6094" y2="153.6094"/>
        <text fill="#000000" font-family="sans-serif" font-size="14" font-weight="bold" lengthAdjust="spacing" textLength="103" x="1339" y="146.5332">java.awt.image</text>
        <!--MD5=[0d852700fdad35b7061d461d6907a324]
cluster java.io-->
        <polygon fill="#FFFFFF" filter="url(#ff8bs5pfnajon)" points="1505,130,1557,130,1564,153.6094,1722,153.6094,1722,230,1505,230,1505,130" style="stroke:#000000;stroke-width:1.5;"/>
        <line style="stroke:#000000;stroke-width:1.5;" x1="1505" x2="1564" y1="153.6094" y2="153.6094"/>
        <text fill="#000000" font-family="sans-serif" font-size="14" font-weight="bold" lengthAdjust="spacing" textLength="46" x="1509" y="146.5332">java.io</text>
        <!--MD5=[7db3c59d38ae5b37b484eb2df9368145]
cluster java.util-->
        <polygon fill="#FFFFFF" filter="url(#ff8bs5pfnajon)" points="1746,130,1807,130,1814,153.6094,1840,153.6094,1840,230,1746,230,1746,130" style="stroke:#000000;stroke-width:1.5;"/>
        <line style="stroke:#000000;stroke-width:1.5;" x1="1746" x2="1814" y1="153.6094" y2="153.6094"/>
        <text fill="#000000" font-family="sans-serif" font-size="14" font-weight="bold" lengthAdjust="spacing" textLength="55" x="1750" y="146.5332">java.util</text>
        <!--MD5=[8db7a6831e1582aab7f84135deae219c]
cluster java.util.logging-->
        <polygon fill="#FFFFFF" filter="url(#ff8bs5pfnajon)" points="1864,130,1982,130,1989,153.6094,2064,153.6094,2064,230,1864,230,1864,130" style="stroke:#000000;stroke-width:1.5;"/>
        <line style="stroke:#000000;stroke-width:1.5;" x1="1864" x2="1989" y1="153.6094" y2="153.6094"/>
        <text fill="#000000" font-family="sans-serif" font-size="14" font-weight="bold" lengthAdjust="spacing" textLength="112" x="1868" y="146.5332">java.util.logging</text>
        <!--MD5=[3b46e7e715fe099b532f92f50df8b975]
cluster javax.imageio-->
        <polygon fill="#FFFFFF" filter="url(#ff8bs5pfnajon)" points="2088,130,2190,130,2197,153.6094,2200,153.6094,2200,230,2088,230,2088,130" style="stroke:#000000;stroke-width:1.5;"/>
        <line style="stroke:#000000;stroke-width:1.5;" x1="2088" x2="2197" y1="153.6094" y2="153.6094"/>
        <text fill="#000000" font-family="sans-serif" font-size="14" font-weight="bold" lengthAdjust="spacing" textLength="96" x="2092" y="146.5332">javax.imageio</text>
        <!--MD5=[535aab4de90d4dfa371a9b40d5438fc3]
cluster javax.swing-->
        <polygon fill="#FFFFFF" filter="url(#ff8bs5pfnajon)" points="2224,130,2312,130,2319,153.6094,2596,153.6094,2596,230,2224,230,2224,130" style="stroke:#000000;stroke-width:1.5;"/>
        <line style="stroke:#000000;stroke-width:1.5;" x1="2224" x2="2319" y1="153.6094" y2="153.6094"/>
        <text fill="#000000" font-family="sans-serif" font-size="14" font-weight="bold" lengthAdjust="spacing" textLength="82" x="2228" y="146.5332">javax.swing</text>
        <!--MD5=[b18be92e7780123633f46dfcafa3dde4]
class java.lang.SuppressWarnings-->
        <rect codeLine="1" fill="#FEFECE" filter="url(#ff8bs5pfnajon)" height="48" id="java.lang.SuppressWarnings" style="stroke:#A80036;stroke-width:1.5;" width="139" x="32.5" y="166"/>
        <ellipse cx="47.5" cy="182" fill="#E3664A" rx="11" ry="11" style="stroke:#A80036;stroke-width:1.0;"/>
        <path d="M49.8438,179.5781 L49.8438,179.0625 Q49.8438,178.2344 49.3594,177.7344 Q48.8906,177.2344 48.1406,177.2344 Q47.5469,177.2344 47.0156,177.6406 Q46.4844,178.0313 46.2188,178.6563 Q45.75,179.75 45.75,180.8594 L45.75,183.375 Q45.75,185.2969 46.6094,186.4219 Q47.1719,187.1719 48.1875,187.1719 Q48.7344,187.1719 49.1719,187.0313 Q49.625,186.8906 49.875,186.6406 Q50.125,186.3906 50.3438,186.3906 Q50.6094,186.3906 50.7969,186.5781 Q50.9844,186.7656 50.9844,187.0313 Q50.9844,187.4531 50.4063,187.8438 Q49.5781,188.4063 48.1406,188.4063 Q47.0469,188.4063 46.3281,187.9063 Q45.4063,187.2656 44.9531,186 Q44.5,184.7344 44.5,183.5 L44.5,180.7656 Q44.5,178.7813 45.4844,177.3906 Q46.4688,175.9844 48.1094,175.9844 Q48.8594,175.9844 49.5,176.2969 Q50.1563,176.5938 50.625,177.3594 Q51.0938,178.125 51.0938,179.0625 L51.0938,183.5938 Q51.4531,183.7656 51.4531,184.1563 Q51.4531,184.4375 51.25,184.625 Q51.0625,184.7969 50.5938,184.7969 L49.8438,184.7969 L49.8438,184.75 Q49.4531,184.8125 49.2656,184.8125 Q48.2656,184.8125 47.5156,184.0781 Q46.7813,183.3281 46.7813,182.3281 Q46.7813,181.2656 47.5938,180.4688 Q48.4219,179.6719 49.8438,179.5781 Z M49.8438,180.8594 Q48.9531,180.9531 48.4844,181.375 Q48.0313,181.7969 48.0313,182.3438 Q48.0313,182.8281 48.4063,183.1719 Q48.7969,183.5156 49.4375,183.5156 Q49.5625,183.5156 49.8438,183.5 L49.8438,180.8594 Z " fill="#000000"/>
        <text fill="#000000" font-family="sans-serif" font-size="12" lengthAdjust="spacing" textLength="107" x="61.5" y="186.9102">SuppressWarnings</text>
        <line style="stroke:#A80036;stroke-width:1.5;" x1="33.5" x2="170.5" y1="198" y2="198"/>
        <line style="stroke:#A80036;stroke-width:1.5;" x1="33.5" x2="170.5" y1="206" y2="206"/>
        <!--MD5=[f4b6cd43ebab74b88b7a2c1657f458e9]
class com.google.zxing.BarcodeFormat-->
        <rect codeLine="2" fill="#FEFECE" filter="url(#ff8bs5pfnajon)" height="48" id="com.google.zxing.BarcodeFormat" style="stroke:#A80036;stroke-width:1.5;" width="117" x="380.5" y="166"/>
        <ellipse cx="395.5" cy="182" fill="#ADD1B2" rx="11" ry="11" style="stroke:#A80036;stroke-width:1.0;"/>
        <path d="M398.2656,177.875 Q398.4219,177.6563 398.6094,177.5469 Q398.7969,177.4375 399.0156,177.4375 Q399.3906,177.4375 399.625,177.7031 Q399.8594,177.9531 399.8594,178.5625 L399.8594,180.0156 Q399.8594,180.625 399.625,180.8906 Q399.3906,181.1563 399.0156,181.1563 Q398.6719,181.1563 398.4688,180.9531 Q398.2656,180.7656 398.1563,180.25 Q398.1094,179.8906 397.9219,179.7031 Q397.5938,179.3281 396.9844,179.1094 Q396.375,178.8906 395.75,178.8906 Q394.9844,178.8906 394.3438,179.2188 Q393.7188,179.5469 393.2188,180.2969 Q392.7344,181.0469 392.7344,182.0781 L392.7344,183.1719 Q392.7344,184.4063 393.625,185.2344 Q394.5156,186.0469 396.1094,186.0469 Q397.0469,186.0469 397.7031,185.7969 Q398.0938,185.6406 398.5156,185.2031 Q398.7813,184.9375 398.9219,184.8594 Q399.0781,184.7813 399.2813,184.7813 Q399.6094,184.7813 399.8594,185.0469 Q400.125,185.2969 400.125,185.6406 Q400.125,185.9844 399.7813,186.3906 Q399.2813,186.9688 398.4844,187.2969 Q397.4063,187.75 396.1094,187.75 Q394.5938,187.75 393.3906,187.125 Q392.4063,186.625 391.7188,185.5625 Q391.0313,184.4844 391.0313,183.2031 L391.0313,182.0469 Q391.0313,180.7188 391.6406,179.5781 Q392.2656,178.4219 393.3594,177.8125 Q394.4531,177.1875 395.6875,177.1875 Q396.4219,177.1875 397.0625,177.3594 Q397.7188,177.5156 398.2656,177.875 Z " fill="#000000"/>
        <text fill="#000000" font-family="sans-serif" font-size="12" lengthAdjust="spacing" textLength="85" x="409.5" y="186.9102">BarcodeFormat</text>
        <line style="stroke:#A80036;stroke-width:1.5;" x1="381.5" x2="496.5" y1="198" y2="198"/>
        <line style="stroke:#A80036;stroke-width:1.5;" x1="381.5" x2="496.5" y1="206" y2="206"/>
        <!--MD5=[7b87d7d8c97169d407ccc5539d8c8687]
class com.google.zxing.WriterException-->
        <rect codeLine="3" fill="#FEFECE" filter="url(#ff8bs5pfnajon)" height="48" id="com.google.zxing.WriterException" style="stroke:#A80036;stroke-width:1.5;" width="117" x="228.5" y="166"/>
        <ellipse cx="243.5" cy="182" fill="#ADD1B2" rx="11" ry="11" style="stroke:#A80036;stroke-width:1.0;"/>
        <path d="M246.2656,177.875 Q246.4219,177.6563 246.6094,177.5469 Q246.7969,177.4375 247.0156,177.4375 Q247.3906,177.4375 247.625,177.7031 Q247.8594,177.9531 247.8594,178.5625 L247.8594,180.0156 Q247.8594,180.625 247.625,180.8906 Q247.3906,181.1563 247.0156,181.1563 Q246.6719,181.1563 246.4688,180.9531 Q246.2656,180.7656 246.1563,180.25 Q246.1094,179.8906 245.9219,179.7031 Q245.5938,179.3281 244.9844,179.1094 Q244.375,178.8906 243.75,178.8906 Q242.9844,178.8906 242.3438,179.2188 Q241.7188,179.5469 241.2188,180.2969 Q240.7344,181.0469 240.7344,182.0781 L240.7344,183.1719 Q240.7344,184.4063 241.625,185.2344 Q242.5156,186.0469 244.1094,186.0469 Q245.0469,186.0469 245.7031,185.7969 Q246.0938,185.6406 246.5156,185.2031 Q246.7813,184.9375 246.9219,184.8594 Q247.0781,184.7813 247.2813,184.7813 Q247.6094,184.7813 247.8594,185.0469 Q248.125,185.2969 248.125,185.6406 Q248.125,185.9844 247.7813,186.3906 Q247.2813,186.9688 246.4844,187.2969 Q245.4063,187.75 244.1094,187.75 Q242.5938,187.75 241.3906,187.125 Q240.4063,186.625 239.7188,185.5625 Q239.0313,184.4844 239.0313,183.2031 L239.0313,182.0469 Q239.0313,180.7188 239.6406,179.5781 Q240.2656,178.4219 241.3594,177.8125 Q242.4531,177.1875 243.6875,177.1875 Q244.4219,177.1875 245.0625,177.3594 Q245.7188,177.5156 246.2656,177.875 Z " fill="#000000"/>
        <text fill="#000000" font-family="sans-serif" font-size="12" lengthAdjust="spacing" textLength="85" x="257.5" y="186.9102">WriterException</text>
        <line style="stroke:#A80036;stroke-width:1.5;" x1="229.5" x2="344.5" y1="198" y2="198"/>
        <line style="stroke:#A80036;stroke-width:1.5;" x1="229.5" x2="344.5" y1="206" y2="206"/>
        <!--MD5=[a4e2da85ec46e72813a91d61aead7790]
class com.google.zxing.common.BitMatrix-->
        <rect codeLine="4" fill="#FEFECE" filter="url(#ff8bs5pfnajon)" height="48" id="com.google.zxing.common.BitMatrix" style="stroke:#A80036;stroke-width:1.5;" width="77" x="646.5" y="166"/>
        <ellipse cx="661.5" cy="182" fill="#ADD1B2" rx="11" ry="11" style="stroke:#A80036;stroke-width:1.0;"/>
        <path d="M664.2656,177.875 Q664.4219,177.6563 664.6094,177.5469 Q664.7969,177.4375 665.0156,177.4375 Q665.3906,177.4375 665.625,177.7031 Q665.8594,177.9531 665.8594,178.5625 L665.8594,180.0156 Q665.8594,180.625 665.625,180.8906 Q665.3906,181.1563 665.0156,181.1563 Q664.6719,181.1563 664.4688,180.9531 Q664.2656,180.7656 664.1563,180.25 Q664.1094,179.8906 663.9219,179.7031 Q663.5938,179.3281 662.9844,179.1094 Q662.375,178.8906 661.75,178.8906 Q660.9844,178.8906 660.3438,179.2188 Q659.7188,179.5469 659.2188,180.2969 Q658.7344,181.0469 658.7344,182.0781 L658.7344,183.1719 Q658.7344,184.4063 659.625,185.2344 Q660.5156,186.0469 662.1094,186.0469 Q663.0469,186.0469 663.7031,185.7969 Q664.0938,185.6406 664.5156,185.2031 Q664.7813,184.9375 664.9219,184.8594 Q665.0781,184.7813 665.2813,184.7813 Q665.6094,184.7813 665.8594,185.0469 Q666.125,185.2969 666.125,185.6406 Q666.125,185.9844 665.7813,186.3906 Q665.2813,186.9688 664.4844,187.2969 Q663.4063,187.75 662.1094,187.75 Q660.5938,187.75 659.3906,187.125 Q658.4063,186.625 657.7188,185.5625 Q657.0313,184.4844 657.0313,183.2031 L657.0313,182.0469 Q657.0313,180.7188 657.6406,179.5781 Q658.2656,178.4219 659.3594,177.8125 Q660.4531,177.1875 661.6875,177.1875 Q662.4219,177.1875 663.0625,177.3594 Q663.7188,177.5156 664.2656,177.875 Z " fill="#000000"/>
        <text fill="#000000" font-family="sans-serif" font-size="12" lengthAdjust="spacing" textLength="45" x="675.5" y="186.9102">BitMatrix</text>
        <line style="stroke:#A80036;stroke-width:1.5;" x1="647.5" x2="722.5" y1="198" y2="198"/>
        <line style="stroke:#A80036;stroke-width:1.5;" x1="647.5" x2="722.5" y1="206" y2="206"/>
        <!--MD5=[4f0f16dfda22ba8577de2f8bbe7ee26b]
class com.google.zxing.qrcode.QRCodeWriter-->
        <rect codeLine="5" fill="#FEFECE" filter="url(#ff8bs5pfnajon)" height="48" id="com.google.zxing.qrcode.QRCodeWriter" style="stroke:#A80036;stroke-width:1.5;" width="112" x="829" y="166"/>
        <ellipse cx="844" cy="182" fill="#ADD1B2" rx="11" ry="11" style="stroke:#A80036;stroke-width:1.0;"/>
        <path d="M846.7656,177.875 Q846.9219,177.6563 847.1094,177.5469 Q847.2969,177.4375 847.5156,177.4375 Q847.8906,177.4375 848.125,177.7031 Q848.3594,177.9531 848.3594,178.5625 L848.3594,180.0156 Q848.3594,180.625 848.125,180.8906 Q847.8906,181.1563 847.5156,181.1563 Q847.1719,181.1563 846.9688,180.9531 Q846.7656,180.7656 846.6563,180.25 Q846.6094,179.8906 846.4219,179.7031 Q846.0938,179.3281 845.4844,179.1094 Q844.875,178.8906 844.25,178.8906 Q843.4844,178.8906 842.8438,179.2188 Q842.2188,179.5469 841.7188,180.2969 Q841.2344,181.0469 841.2344,182.0781 L841.2344,183.1719 Q841.2344,184.4063 842.125,185.2344 Q843.0156,186.0469 844.6094,186.0469 Q845.5469,186.0469 846.2031,185.7969 Q846.5938,185.6406 847.0156,185.2031 Q847.2813,184.9375 847.4219,184.8594 Q847.5781,184.7813 847.7813,184.7813 Q848.1094,184.7813 848.3594,185.0469 Q848.625,185.2969 848.625,185.6406 Q848.625,185.9844 848.2813,186.3906 Q847.7813,186.9688 846.9844,187.2969 Q845.9063,187.75 844.6094,187.75 Q843.0938,187.75 841.8906,187.125 Q840.9063,186.625 840.2188,185.5625 Q839.5313,184.4844 839.5313,183.2031 L839.5313,182.0469 Q839.5313,180.7188 840.1406,179.5781 Q840.7656,178.4219 841.8594,177.8125 Q842.9531,177.1875 844.1875,177.1875 Q844.9219,177.1875 845.5625,177.3594 Q846.2188,177.5156 846.7656,177.875 Z " fill="#000000"/>
        <text fill="#000000" font-family="sans-serif" font-size="12" lengthAdjust="spacing" textLength="80" x="858" y="186.9102">QRCodeWriter</text>
        <line style="stroke:#A80036;stroke-width:1.5;" x1="830" x2="940" y1="198" y2="198"/>
        <line style="stroke:#A80036;stroke-width:1.5;" x1="830" x2="940" y1="206" y2="206"/>
        <!--MD5=[99f1988f0774dcda2047a3fb55c1efc1]
class gneradorqr.GneradorQR-->
        <rect codeLine="6" fill="#FEFECE" filter="url(#ff8bs5pfnajon)" height="48" id="gneradorqr.GneradorQR" style="stroke:#A80036;stroke-width:1.5;" width="102" x="1549" y="42"/>
        <ellipse cx="1564" cy="58" fill="#ADD1B2" rx="11" ry="11" style="stroke:#A80036;stroke-width:1.0;"/>
        <path d="M1566.7656,53.875 Q1566.9219,53.6563 1567.1094,53.5469 Q1567.2969,53.4375 1567.5156,53.4375 Q1567.8906,53.4375 1568.125,53.7031 Q1568.3594,53.9531 1568.3594,54.5625 L1568.3594,56.0156 Q1568.3594,56.625 1568.125,56.8906 Q1567.8906,57.1563 1567.5156,57.1563 Q1567.1719,57.1563 1566.9688,56.9531 Q1566.7656,56.7656 1566.6563,56.25 Q1566.6094,55.8906 1566.4219,55.7031 Q1566.0938,55.3281 1565.4844,55.1094 Q1564.875,54.8906 1564.25,54.8906 Q1563.4844,54.8906 1562.8438,55.2188 Q1562.2188,55.5469 1561.7188,56.2969 Q1561.2344,57.0469 1561.2344,58.0781 L1561.2344,59.1719 Q1561.2344,60.4063 1562.125,61.2344 Q1563.0156,62.0469 1564.6094,62.0469 Q1565.5469,62.0469 1566.2031,61.7969 Q1566.5938,61.6406 1567.0156,61.2031 Q1567.2813,60.9375 1567.4219,60.8594 Q1567.5781,60.7813 1567.7813,60.7813 Q1568.1094,60.7813 1568.3594,61.0469 Q1568.625,61.2969 1568.625,61.6406 Q1568.625,61.9844 1568.2813,62.3906 Q1567.7813,62.9688 1566.9844,63.2969 Q1565.9063,63.75 1564.6094,63.75 Q1563.0938,63.75 1561.8906,63.125 Q1560.9063,62.625 1560.2188,61.5625 Q1559.5313,60.4844 1559.5313,59.2031 L1559.5313,58.0469 Q1559.5313,56.7188 1560.1406,55.5781 Q1560.7656,54.4219 1561.8594,53.8125 Q1562.9531,53.1875 1564.1875,53.1875 Q1564.9219,53.1875 1565.5625,53.3594 Q1566.2188,53.5156 1566.7656,53.875 Z " fill="#000000"/>
        <text fill="#000000" font-family="sans-serif" font-size="12" lengthAdjust="spacing" textLength="70" x="1578" y="62.9102">GneradorQR</text>
        <line style="stroke:#A80036;stroke-width:1.5;" x1="1550" x2="1650" y1="74" y2="74"/>
        <line style="stroke:#A80036;stroke-width:1.5;" x1="1550" x2="1650" y1="82" y2="82"/>
        <!--MD5=[9c75d31f792571d6abcaad64aa4da6b9]
class gneradorqr.QR-->
        <rect codeLine="7" fill="#FEFECE" filter="url(#ff8bs5pfnajon)" height="48" id="gneradorqr.QR" style="stroke:#A80036;stroke-width:1.5;" width="50" x="1464" y="42"/>
        <ellipse cx="1479" cy="58" fill="#ADD1B2" rx="11" ry="11" style="stroke:#A80036;stroke-width:1.0;"/>
        <path d="M1481.7656,53.875 Q1481.9219,53.6563 1482.1094,53.5469 Q1482.2969,53.4375 1482.5156,53.4375 Q1482.8906,53.4375 1483.125,53.7031 Q1483.3594,53.9531 1483.3594,54.5625 L1483.3594,56.0156 Q1483.3594,56.625 1483.125,56.8906 Q1482.8906,57.1563 1482.5156,57.1563 Q1482.1719,57.1563 1481.9688,56.9531 Q1481.7656,56.7656 1481.6563,56.25 Q1481.6094,55.8906 1481.4219,55.7031 Q1481.0938,55.3281 1480.4844,55.1094 Q1479.875,54.8906 1479.25,54.8906 Q1478.4844,54.8906 1477.8438,55.2188 Q1477.2188,55.5469 1476.7188,56.2969 Q1476.2344,57.0469 1476.2344,58.0781 L1476.2344,59.1719 Q1476.2344,60.4063 1477.125,61.2344 Q1478.0156,62.0469 1479.6094,62.0469 Q1480.5469,62.0469 1481.2031,61.7969 Q1481.5938,61.6406 1482.0156,61.2031 Q1482.2813,60.9375 1482.4219,60.8594 Q1482.5781,60.7813 1482.7813,60.7813 Q1483.1094,60.7813 1483.3594,61.0469 Q1483.625,61.2969 1483.625,61.6406 Q1483.625,61.9844 1483.2813,62.3906 Q1482.7813,62.9688 1481.9844,63.2969 Q1480.9063,63.75 1479.6094,63.75 Q1478.0938,63.75 1476.8906,63.125 Q1475.9063,62.625 1475.2188,61.5625 Q1474.5313,60.4844 1474.5313,59.2031 L1474.5313,58.0469 Q1474.5313,56.7188 1475.1406,55.5781 Q1475.7656,54.4219 1476.8594,53.8125 Q1477.9531,53.1875 1479.1875,53.1875 Q1479.9219,53.1875 1480.5625,53.3594 Q1481.2188,53.5156 1481.7656,53.875 Z " fill="#000000"/>
        <text fill="#000000" font-family="sans-serif" font-size="12" lengthAdjust="spacing" textLength="18" x="1493" y="62.9102">QR</text>
        <line style="stroke:#A80036;stroke-width:1.5;" x1="1465" x2="1513" y1="74" y2="74"/>
        <line style="stroke:#A80036;stroke-width:1.5;" x1="1465" x2="1513" y1="82" y2="82"/>
        <!--MD5=[0154e44e69ecead3cc93cdfb9371d35e]
class java.awt.Color-->
        <rect codeLine="8" fill="#FEFECE" filter="url(#ff8bs5pfnajon)" height="48" id="java.awt.Color" style="stroke:#A80036;stroke-width:1.5;" width="62" x="1233" y="166"/>
        <ellipse cx="1248" cy="182" fill="#ADD1B2" rx="11" ry="11" style="stroke:#A80036;stroke-width:1.0;"/>
        <path d="M1250.7656,177.875 Q1250.9219,177.6563 1251.1094,177.5469 Q1251.2969,177.4375 1251.5156,177.4375 Q1251.8906,177.4375 1252.125,177.7031 Q1252.3594,177.9531 1252.3594,178.5625 L1252.3594,180.0156 Q1252.3594,180.625 1252.125,180.8906 Q1251.8906,181.1563 1251.5156,181.1563 Q1251.1719,181.1563 1250.9688,180.9531 Q1250.7656,180.7656 1250.6563,180.25 Q1250.6094,179.8906 1250.4219,179.7031 Q1250.0938,179.3281 1249.4844,179.1094 Q1248.875,178.8906 1248.25,178.8906 Q1247.4844,178.8906 1246.8438,179.2188 Q1246.2188,179.5469 1245.7188,180.2969 Q1245.2344,181.0469 1245.2344,182.0781 L1245.2344,183.1719 Q1245.2344,184.4063 1246.125,185.2344 Q1247.0156,186.0469 1248.6094,186.0469 Q1249.5469,186.0469 1250.2031,185.7969 Q1250.5938,185.6406 1251.0156,185.2031 Q1251.2813,184.9375 1251.4219,184.8594 Q1251.5781,184.7813 1251.7813,184.7813 Q1252.1094,184.7813 1252.3594,185.0469 Q1252.625,185.2969 1252.625,185.6406 Q1252.625,185.9844 1252.2813,186.3906 Q1251.7813,186.9688 1250.9844,187.2969 Q1249.9063,187.75 1248.6094,187.75 Q1247.0938,187.75 1245.8906,187.125 Q1244.9063,186.625 1244.2188,185.5625 Q1243.5313,184.4844 1243.5313,183.2031 L1243.5313,182.0469 Q1243.5313,180.7188 1244.1406,179.5781 Q1244.7656,178.4219 1245.8594,177.8125 Q1246.9531,177.1875 1248.1875,177.1875 Q1248.9219,177.1875 1249.5625,177.3594 Q1250.2188,177.5156 1250.7656,177.875 Z " fill="#000000"/>
        <text fill="#000000" font-family="sans-serif" font-size="12" lengthAdjust="spacing" textLength="30" x="1262" y="186.9102">Color</text>
        <line style="stroke:#A80036;stroke-width:1.5;" x1="1234" x2="1294" y1="198" y2="198"/>
        <line style="stroke:#A80036;stroke-width:1.5;" x1="1234" x2="1294" y1="206" y2="206"/>
        <!--MD5=[eb405ea9111e000d782073139bb4c696]
class java.awt.Graphics2D-->
        <rect codeLine="9" fill="#FEFECE" filter="url(#ff8bs5pfnajon)" height="48" id="java.awt.Graphics2D" style="stroke:#A80036;stroke-width:1.5;" width="98" x="1100" y="166"/>
        <ellipse cx="1115" cy="182" fill="#ADD1B2" rx="11" ry="11" style="stroke:#A80036;stroke-width:1.0;"/>
        <path d="M1117.7656,177.875 Q1117.9219,177.6563 1118.1094,177.5469 Q1118.2969,177.4375 1118.5156,177.4375 Q1118.8906,177.4375 1119.125,177.7031 Q1119.3594,177.9531 1119.3594,178.5625 L1119.3594,180.0156 Q1119.3594,180.625 1119.125,180.8906 Q1118.8906,181.1563 1118.5156,181.1563 Q1118.1719,181.1563 1117.9688,180.9531 Q1117.7656,180.7656 1117.6563,180.25 Q1117.6094,179.8906 1117.4219,179.7031 Q1117.0938,179.3281 1116.4844,179.1094 Q1115.875,178.8906 1115.25,178.8906 Q1114.4844,178.8906 1113.8438,179.2188 Q1113.2188,179.5469 1112.7188,180.2969 Q1112.2344,181.0469 1112.2344,182.0781 L1112.2344,183.1719 Q1112.2344,184.4063 1113.125,185.2344 Q1114.0156,186.0469 1115.6094,186.0469 Q1116.5469,186.0469 1117.2031,185.7969 Q1117.5938,185.6406 1118.0156,185.2031 Q1118.2813,184.9375 1118.4219,184.8594 Q1118.5781,184.7813 1118.7813,184.7813 Q1119.1094,184.7813 1119.3594,185.0469 Q1119.625,185.2969 1119.625,185.6406 Q1119.625,185.9844 1119.2813,186.3906 Q1118.7813,186.9688 1117.9844,187.2969 Q1116.9063,187.75 1115.6094,187.75 Q1114.0938,187.75 1112.8906,187.125 Q1111.9063,186.625 1111.2188,185.5625 Q1110.5313,184.4844 1110.5313,183.2031 L1110.5313,182.0469 Q1110.5313,180.7188 1111.1406,179.5781 Q1111.7656,178.4219 1112.8594,177.8125 Q1113.9531,177.1875 1115.1875,177.1875 Q1115.9219,177.1875 1116.5625,177.3594 Q1117.2188,177.5156 1117.7656,177.875 Z " fill="#000000"/>
        <text fill="#000000" font-family="sans-serif" font-size="12" lengthAdjust="spacing" textLength="66" x="1129" y="186.9102">Graphics2D</text>
        <line style="stroke:#A80036;stroke-width:1.5;" x1="1101" x2="1197" y1="198" y2="198"/>
        <line style="stroke:#A80036;stroke-width:1.5;" x1="1101" x2="1197" y1="206" y2="206"/>
        <!--MD5=[4724cfb81a2aa4a27512639e7d292382]
class java.awt.Image-->
        <rect codeLine="10" fill="#FEFECE" filter="url(#ff8bs5pfnajon)" height="48" id="java.awt.Image" style="stroke:#A80036;stroke-width:1.5;" width="67" x="997.5" y="166"/>
        <ellipse cx="1012.5" cy="182" fill="#ADD1B2" rx="11" ry="11" style="stroke:#A80036;stroke-width:1.0;"/>
        <path d="M1015.2656,177.875 Q1015.4219,177.6563 1015.6094,177.5469 Q1015.7969,177.4375 1016.0156,177.4375 Q1016.3906,177.4375 1016.625,177.7031 Q1016.8594,177.9531 1016.8594,178.5625 L1016.8594,180.0156 Q1016.8594,180.625 1016.625,180.8906 Q1016.3906,181.1563 1016.0156,181.1563 Q1015.6719,181.1563 1015.4688,180.9531 Q1015.2656,180.7656 1015.1563,180.25 Q1015.1094,179.8906 1014.9219,179.7031 Q1014.5938,179.3281 1013.9844,179.1094 Q1013.375,178.8906 1012.75,178.8906 Q1011.9844,178.8906 1011.3438,179.2188 Q1010.7188,179.5469 1010.2188,180.2969 Q1009.7344,181.0469 1009.7344,182.0781 L1009.7344,183.1719 Q1009.7344,184.4063 1010.625,185.2344 Q1011.5156,186.0469 1013.1094,186.0469 Q1014.0469,186.0469 1014.7031,185.7969 Q1015.0938,185.6406 1015.5156,185.2031 Q1015.7813,184.9375 1015.9219,184.8594 Q1016.0781,184.7813 1016.2813,184.7813 Q1016.6094,184.7813 1016.8594,185.0469 Q1017.125,185.2969 1017.125,185.6406 Q1017.125,185.9844 1016.7813,186.3906 Q1016.2813,186.9688 1015.4844,187.2969 Q1014.4063,187.75 1013.1094,187.75 Q1011.5938,187.75 1010.3906,187.125 Q1009.4063,186.625 1008.7188,185.5625 Q1008.0313,184.4844 1008.0313,183.2031 L1008.0313,182.0469 Q1008.0313,180.7188 1008.6406,179.5781 Q1009.2656,178.4219 1010.3594,177.8125 Q1011.4531,177.1875 1012.6875,177.1875 Q1013.4219,177.1875 1014.0625,177.3594 Q1014.7188,177.5156 1015.2656,177.875 Z " fill="#000000"/>
        <text fill="#000000" font-family="sans-serif" font-size="12" lengthAdjust="spacing" textLength="35" x="1026.5" y="186.9102">Image</text>
        <line style="stroke:#A80036;stroke-width:1.5;" x1="998.5" x2="1063.5" y1="198" y2="198"/>
        <line style="stroke:#A80036;stroke-width:1.5;" x1="998.5" x2="1063.5" y1="206" y2="206"/>
        <!--MD5=[e3fa7a3d8d1bc77440cb0c3f3ce11b31]
class java.awt.image.BufferedImage-->
        <rect codeLine="11" fill="#FEFECE" filter="url(#ff8bs5pfnajon)" height="48" id="java.awt.image.BufferedImage" style="stroke:#A80036;stroke-width:1.5;" width="113" x="1351.5" y="166"/>
        <ellipse cx="1366.5" cy="182" fill="#ADD1B2" rx="11" ry="11" style="stroke:#A80036;stroke-width:1.0;"/>
        <path d="M1369.2656,177.875 Q1369.4219,177.6563 1369.6094,177.5469 Q1369.7969,177.4375 1370.0156,177.4375 Q1370.3906,177.4375 1370.625,177.7031 Q1370.8594,177.9531 1370.8594,178.5625 L1370.8594,180.0156 Q1370.8594,180.625 1370.625,180.8906 Q1370.3906,181.1563 1370.0156,181.1563 Q1369.6719,181.1563 1369.4688,180.9531 Q1369.2656,180.7656 1369.1563,180.25 Q1369.1094,179.8906 1368.9219,179.7031 Q1368.5938,179.3281 1367.9844,179.1094 Q1367.375,178.8906 1366.75,178.8906 Q1365.9844,178.8906 1365.3438,179.2188 Q1364.7188,179.5469 1364.2188,180.2969 Q1363.7344,181.0469 1363.7344,182.0781 L1363.7344,183.1719 Q1363.7344,184.4063 1364.625,185.2344 Q1365.5156,186.0469 1367.1094,186.0469 Q1368.0469,186.0469 1368.7031,185.7969 Q1369.0938,185.6406 1369.5156,185.2031 Q1369.7813,184.9375 1369.9219,184.8594 Q1370.0781,184.7813 1370.2813,184.7813 Q1370.6094,184.7813 1370.8594,185.0469 Q1371.125,185.2969 1371.125,185.6406 Q1371.125,185.9844 1370.7813,186.3906 Q1370.2813,186.9688 1369.4844,187.2969 Q1368.4063,187.75 1367.1094,187.75 Q1365.5938,187.75 1364.3906,187.125 Q1363.4063,186.625 1362.7188,185.5625 Q1362.0313,184.4844 1362.0313,183.2031 L1362.0313,182.0469 Q1362.0313,180.7188 1362.6406,179.5781 Q1363.2656,178.4219 1364.3594,177.8125 Q1365.4531,177.1875 1366.6875,177.1875 Q1367.4219,177.1875 1368.0625,177.3594 Q1368.7188,177.5156 1369.2656,177.875 Z " fill="#000000"/>
        <text fill="#000000" font-family="sans-serif" font-size="12" lengthAdjust="spacing" textLength="81" x="1380.5" y="186.9102">BufferedImage</text>
        <line style="stroke:#A80036;stroke-width:1.5;" x1="1352.5" x2="1463.5" y1="198" y2="198"/>
        <line style="stroke:#A80036;stroke-width:1.5;" x1="1352.5" x2="1463.5" y1="206" y2="206"/>
        <!--MD5=[c6f7a6c596e3395cd93cf9c14e16296b]
class java.io.File-->
        <rect codeLine="12" fill="#FEFECE" filter="url(#ff8bs5pfnajon)" height="48" id="java.io.File" style="stroke:#A80036;stroke-width:1.5;" width="52" x="1654" y="166"/>
        <ellipse cx="1669" cy="182" fill="#ADD1B2" rx="11" ry="11" style="stroke:#A80036;stroke-width:1.0;"/>
        <path d="M1671.7656,177.875 Q1671.9219,177.6563 1672.1094,177.5469 Q1672.2969,177.4375 1672.5156,177.4375 Q1672.8906,177.4375 1673.125,177.7031 Q1673.3594,177.9531 1673.3594,178.5625 L1673.3594,180.0156 Q1673.3594,180.625 1673.125,180.8906 Q1672.8906,181.1563 1672.5156,181.1563 Q1672.1719,181.1563 1671.9688,180.9531 Q1671.7656,180.7656 1671.6563,180.25 Q1671.6094,179.8906 1671.4219,179.7031 Q1671.0938,179.3281 1670.4844,179.1094 Q1669.875,178.8906 1669.25,178.8906 Q1668.4844,178.8906 1667.8438,179.2188 Q1667.2188,179.5469 1666.7188,180.2969 Q1666.2344,181.0469 1666.2344,182.0781 L1666.2344,183.1719 Q1666.2344,184.4063 1667.125,185.2344 Q1668.0156,186.0469 1669.6094,186.0469 Q1670.5469,186.0469 1671.2031,185.7969 Q1671.5938,185.6406 1672.0156,185.2031 Q1672.2813,184.9375 1672.4219,184.8594 Q1672.5781,184.7813 1672.7813,184.7813 Q1673.1094,184.7813 1673.3594,185.0469 Q1673.625,185.2969 1673.625,185.6406 Q1673.625,185.9844 1673.2813,186.3906 Q1672.7813,186.9688 1671.9844,187.2969 Q1670.9063,187.75 1669.6094,187.75 Q1668.0938,187.75 1666.8906,187.125 Q1665.9063,186.625 1665.2188,185.5625 Q1664.5313,184.4844 1664.5313,183.2031 L1664.5313,182.0469 Q1664.5313,180.7188 1665.1406,179.5781 Q1665.7656,178.4219 1666.8594,177.8125 Q1667.9531,177.1875 1669.1875,177.1875 Q1669.9219,177.1875 1670.5625,177.3594 Q1671.2188,177.5156 1671.7656,177.875 Z " fill="#000000"/>
        <text fill="#000000" font-family="sans-serif" font-size="12" lengthAdjust="spacing" textLength="20" x="1683" y="186.9102">File</text>
        <line style="stroke:#A80036;stroke-width:1.5;" x1="1655" x2="1705" y1="198" y2="198"/>
        <line style="stroke:#A80036;stroke-width:1.5;" x1="1655" x2="1705" y1="206" y2="206"/>
        <!--MD5=[f9b1c514720d11632347406872c61b6a]
class java.io.IOException-->
        <rect codeLine="13" fill="#FEFECE" filter="url(#ff8bs5pfnajon)" height="48" id="java.io.IOException" style="stroke:#A80036;stroke-width:1.5;" width="97" x="1521.5" y="166"/>
        <ellipse cx="1536.5" cy="182" fill="#ADD1B2" rx="11" ry="11" style="stroke:#A80036;stroke-width:1.0;"/>
        <path d="M1539.2656,177.875 Q1539.4219,177.6563 1539.6094,177.5469 Q1539.7969,177.4375 1540.0156,177.4375 Q1540.3906,177.4375 1540.625,177.7031 Q1540.8594,177.9531 1540.8594,178.5625 L1540.8594,180.0156 Q1540.8594,180.625 1540.625,180.8906 Q1540.3906,181.1563 1540.0156,181.1563 Q1539.6719,181.1563 1539.4688,180.9531 Q1539.2656,180.7656 1539.1563,180.25 Q1539.1094,179.8906 1538.9219,179.7031 Q1538.5938,179.3281 1537.9844,179.1094 Q1537.375,178.8906 1536.75,178.8906 Q1535.9844,178.8906 1535.3438,179.2188 Q1534.7188,179.5469 1534.2188,180.2969 Q1533.7344,181.0469 1533.7344,182.0781 L1533.7344,183.1719 Q1533.7344,184.4063 1534.625,185.2344 Q1535.5156,186.0469 1537.1094,186.0469 Q1538.0469,186.0469 1538.7031,185.7969 Q1539.0938,185.6406 1539.5156,185.2031 Q1539.7813,184.9375 1539.9219,184.8594 Q1540.0781,184.7813 1540.2813,184.7813 Q1540.6094,184.7813 1540.8594,185.0469 Q1541.125,185.2969 1541.125,185.6406 Q1541.125,185.9844 1540.7813,186.3906 Q1540.2813,186.9688 1539.4844,187.2969 Q1538.4063,187.75 1537.1094,187.75 Q1535.5938,187.75 1534.3906,187.125 Q1533.4063,186.625 1532.7188,185.5625 Q1532.0313,184.4844 1532.0313,183.2031 L1532.0313,182.0469 Q1532.0313,180.7188 1532.6406,179.5781 Q1533.2656,178.4219 1534.3594,177.8125 Q1535.4531,177.1875 1536.6875,177.1875 Q1537.4219,177.1875 1538.0625,177.3594 Q1538.7188,177.5156 1539.2656,177.875 Z " fill="#000000"/>
        <text fill="#000000" font-family="sans-serif" font-size="12" lengthAdjust="spacing" textLength="65" x="1550.5" y="186.9102">IOException</text>
        <line style="stroke:#A80036;stroke-width:1.5;" x1="1522.5" x2="1617.5" y1="198" y2="198"/>
        <line style="stroke:#A80036;stroke-width:1.5;" x1="1522.5" x2="1617.5" y1="206" y2="206"/>
        <!--MD5=[5f19017aa0017e3ce8b35282c7bbcbef]
class java.util.UUID-->
        <rect codeLine="14" fill="#FEFECE" filter="url(#ff8bs5pfnajon)" height="48" id="java.util.UUID" style="stroke:#A80036;stroke-width:1.5;" width="62" x="1762" y="166"/>
        <ellipse cx="1777" cy="182" fill="#ADD1B2" rx="11" ry="11" style="stroke:#A80036;stroke-width:1.0;"/>
        <path d="M1779.7656,177.875 Q1779.9219,177.6563 1780.1094,177.5469 Q1780.2969,177.4375 1780.5156,177.4375 Q1780.8906,177.4375 1781.125,177.7031 Q1781.3594,177.9531 1781.3594,178.5625 L1781.3594,180.0156 Q1781.3594,180.625 1781.125,180.8906 Q1780.8906,181.1563 1780.5156,181.1563 Q1780.1719,181.1563 1779.9688,180.9531 Q1779.7656,180.7656 1779.6563,180.25 Q1779.6094,179.8906 1779.4219,179.7031 Q1779.0938,179.3281 1778.4844,179.1094 Q1777.875,178.8906 1777.25,178.8906 Q1776.4844,178.8906 1775.8438,179.2188 Q1775.2188,179.5469 1774.7188,180.2969 Q1774.2344,181.0469 1774.2344,182.0781 L1774.2344,183.1719 Q1774.2344,184.4063 1775.125,185.2344 Q1776.0156,186.0469 1777.6094,186.0469 Q1778.5469,186.0469 1779.2031,185.7969 Q1779.5938,185.6406 1780.0156,185.2031 Q1780.2813,184.9375 1780.4219,184.8594 Q1780.5781,184.7813 1780.7813,184.7813 Q1781.1094,184.7813 1781.3594,185.0469 Q1781.625,185.2969 1781.625,185.6406 Q1781.625,185.9844 1781.2813,186.3906 Q1780.7813,186.9688 1779.9844,187.2969 Q1778.9063,187.75 1777.6094,187.75 Q1776.0938,187.75 1774.8906,187.125 Q1773.9063,186.625 1773.2188,185.5625 Q1772.5313,184.4844 1772.5313,183.2031 L1772.5313,182.0469 Q1772.5313,180.7188 1773.1406,179.5781 Q1773.7656,178.4219 1774.8594,177.8125 Q1775.9531,177.1875 1777.1875,177.1875 Q1777.9219,177.1875 1778.5625,177.3594 Q1779.2188,177.5156 1779.7656,177.875 Z " fill="#000000"/>
        <text fill="#000000" font-family="sans-serif" font-size="12" lengthAdjust="spacing" textLength="30" x="1791" y="186.9102">UUID</text>
        <line style="stroke:#A80036;stroke-width:1.5;" x1="1763" x2="1823" y1="198" y2="198"/>
        <line style="stroke:#A80036;stroke-width:1.5;" x1="1763" x2="1823" y1="206" y2="206"/>
        <!--MD5=[97858d589252501528b07b5b18181cbf]
class java.util.logging.Level-->
        <rect codeLine="15" fill="#FEFECE" filter="url(#ff8bs5pfnajon)" height="48" id="java.util.logging.Level" style="stroke:#A80036;stroke-width:1.5;" width="61" x="1986.5" y="166"/>
        <ellipse cx="2001.5" cy="182" fill="#ADD1B2" rx="11" ry="11" style="stroke:#A80036;stroke-width:1.0;"/>
        <path d="M2004.2656,177.875 Q2004.4219,177.6563 2004.6094,177.5469 Q2004.7969,177.4375 2005.0156,177.4375 Q2005.3906,177.4375 2005.625,177.7031 Q2005.8594,177.9531 2005.8594,178.5625 L2005.8594,180.0156 Q2005.8594,180.625 2005.625,180.8906 Q2005.3906,181.1563 2005.0156,181.1563 Q2004.6719,181.1563 2004.4688,180.9531 Q2004.2656,180.7656 2004.1563,180.25 Q2004.1094,179.8906 2003.9219,179.7031 Q2003.5938,179.3281 2002.9844,179.1094 Q2002.375,178.8906 2001.75,178.8906 Q2000.9844,178.8906 2000.3438,179.2188 Q1999.7188,179.5469 1999.2188,180.2969 Q1998.7344,181.0469 1998.7344,182.0781 L1998.7344,183.1719 Q1998.7344,184.4063 1999.625,185.2344 Q2000.5156,186.0469 2002.1094,186.0469 Q2003.0469,186.0469 2003.7031,185.7969 Q2004.0938,185.6406 2004.5156,185.2031 Q2004.7813,184.9375 2004.9219,184.8594 Q2005.0781,184.7813 2005.2813,184.7813 Q2005.6094,184.7813 2005.8594,185.0469 Q2006.125,185.2969 2006.125,185.6406 Q2006.125,185.9844 2005.7813,186.3906 Q2005.2813,186.9688 2004.4844,187.2969 Q2003.4063,187.75 2002.1094,187.75 Q2000.5938,187.75 1999.3906,187.125 Q1998.4063,186.625 1997.7188,185.5625 Q1997.0313,184.4844 1997.0313,183.2031 L1997.0313,182.0469 Q1997.0313,180.7188 1997.6406,179.5781 Q1998.2656,178.4219 1999.3594,177.8125 Q2000.4531,177.1875 2001.6875,177.1875 Q2002.4219,177.1875 2003.0625,177.3594 Q2003.7188,177.5156 2004.2656,177.875 Z " fill="#000000"/>
        <text fill="#000000" font-family="sans-serif" font-size="12" lengthAdjust="spacing" textLength="29" x="2015.5" y="186.9102">Level</text>
        <line style="stroke:#A80036;stroke-width:1.5;" x1="1987.5" x2="2046.5" y1="198" y2="198"/>
        <line style="stroke:#A80036;stroke-width:1.5;" x1="1987.5" x2="2046.5" y1="206" y2="206"/>
        <!--MD5=[9e893cf6d9c856d6c611c04975a71345]
class java.util.logging.Logger-->
        <rect codeLine="16" fill="#FEFECE" filter="url(#ff8bs5pfnajon)" height="48" id="java.util.logging.Logger" style="stroke:#A80036;stroke-width:1.5;" width="71" x="1880.5" y="166"/>
        <ellipse cx="1895.5" cy="182" fill="#ADD1B2" rx="11" ry="11" style="stroke:#A80036;stroke-width:1.0;"/>
        <path d="M1898.2656,177.875 Q1898.4219,177.6563 1898.6094,177.5469 Q1898.7969,177.4375 1899.0156,177.4375 Q1899.3906,177.4375 1899.625,177.7031 Q1899.8594,177.9531 1899.8594,178.5625 L1899.8594,180.0156 Q1899.8594,180.625 1899.625,180.8906 Q1899.3906,181.1563 1899.0156,181.1563 Q1898.6719,181.1563 1898.4688,180.9531 Q1898.2656,180.7656 1898.1563,180.25 Q1898.1094,179.8906 1897.9219,179.7031 Q1897.5938,179.3281 1896.9844,179.1094 Q1896.375,178.8906 1895.75,178.8906 Q1894.9844,178.8906 1894.3438,179.2188 Q1893.7188,179.5469 1893.2188,180.2969 Q1892.7344,181.0469 1892.7344,182.0781 L1892.7344,183.1719 Q1892.7344,184.4063 1893.625,185.2344 Q1894.5156,186.0469 1896.1094,186.0469 Q1897.0469,186.0469 1897.7031,185.7969 Q1898.0938,185.6406 1898.5156,185.2031 Q1898.7813,184.9375 1898.9219,184.8594 Q1899.0781,184.7813 1899.2813,184.7813 Q1899.6094,184.7813 1899.8594,185.0469 Q1900.125,185.2969 1900.125,185.6406 Q1900.125,185.9844 1899.7813,186.3906 Q1899.2813,186.9688 1898.4844,187.2969 Q1897.4063,187.75 1896.1094,187.75 Q1894.5938,187.75 1893.3906,187.125 Q1892.4063,186.625 1891.7188,185.5625 Q1891.0313,184.4844 1891.0313,183.2031 L1891.0313,182.0469 Q1891.0313,180.7188 1891.6406,179.5781 Q1892.2656,178.4219 1893.3594,177.8125 Q1894.4531,177.1875 1895.6875,177.1875 Q1896.4219,177.1875 1897.0625,177.3594 Q1897.7188,177.5156 1898.2656,177.875 Z " fill="#000000"/>
        <text fill="#000000" font-family="sans-serif" font-size="12" lengthAdjust="spacing" textLength="39" x="1909.5" y="186.9102">Logger</text>
        <line style="stroke:#A80036;stroke-width:1.5;" x1="1881.5" x2="1950.5" y1="198" y2="198"/>
        <line style="stroke:#A80036;stroke-width:1.5;" x1="1881.5" x2="1950.5" y1="206" y2="206"/>
        <!--MD5=[79e2ffb504ae64d11ff62175ea6b9e80]
class javax.imageio.ImageIO-->
        <rect codeLine="17" fill="#FEFECE" filter="url(#ff8bs5pfnajon)" height="48" id="javax.imageio.ImageIO" style="stroke:#A80036;stroke-width:1.5;" width="79" x="2104.5" y="166"/>
        <ellipse cx="2119.5" cy="182" fill="#ADD1B2" rx="11" ry="11" style="stroke:#A80036;stroke-width:1.0;"/>
        <path d="M2122.2656,177.875 Q2122.4219,177.6563 2122.6094,177.5469 Q2122.7969,177.4375 2123.0156,177.4375 Q2123.3906,177.4375 2123.625,177.7031 Q2123.8594,177.9531 2123.8594,178.5625 L2123.8594,180.0156 Q2123.8594,180.625 2123.625,180.8906 Q2123.3906,181.1563 2123.0156,181.1563 Q2122.6719,181.1563 2122.4688,180.9531 Q2122.2656,180.7656 2122.1563,180.25 Q2122.1094,179.8906 2121.9219,179.7031 Q2121.5938,179.3281 2120.9844,179.1094 Q2120.375,178.8906 2119.75,178.8906 Q2118.9844,178.8906 2118.3438,179.2188 Q2117.7188,179.5469 2117.2188,180.2969 Q2116.7344,181.0469 2116.7344,182.0781 L2116.7344,183.1719 Q2116.7344,184.4063 2117.625,185.2344 Q2118.5156,186.0469 2120.1094,186.0469 Q2121.0469,186.0469 2121.7031,185.7969 Q2122.0938,185.6406 2122.5156,185.2031 Q2122.7813,184.9375 2122.9219,184.8594 Q2123.0781,184.7813 2123.2813,184.7813 Q2123.6094,184.7813 2123.8594,185.0469 Q2124.125,185.2969 2124.125,185.6406 Q2124.125,185.9844 2123.7813,186.3906 Q2123.2813,186.9688 2122.4844,187.2969 Q2121.4063,187.75 2120.1094,187.75 Q2118.5938,187.75 2117.3906,187.125 Q2116.4063,186.625 2115.7188,185.5625 Q2115.0313,184.4844 2115.0313,183.2031 L2115.0313,182.0469 Q2115.0313,180.7188 2115.6406,179.5781 Q2116.2656,178.4219 2117.3594,177.8125 Q2118.4531,177.1875 2119.6875,177.1875 Q2120.4219,177.1875 2121.0625,177.3594 Q2121.7188,177.5156 2122.2656,177.875 Z " fill="#000000"/>
        <text fill="#000000" font-family="sans-serif" font-size="12" lengthAdjust="spacing" textLength="47" x="2133.5" y="186.9102">ImageIO</text>
        <line style="stroke:#A80036;stroke-width:1.5;" x1="2105.5" x2="2182.5" y1="198" y2="198"/>
        <line style="stroke:#A80036;stroke-width:1.5;" x1="2105.5" x2="2182.5" y1="206" y2="206"/>
        <!--MD5=[d910bb5291d07a93c017e0c2f5464d6c]
class javax.swing.ImageIcon-->
        <rect codeLine="18" fill="#FEFECE" filter="url(#ff8bs5pfnajon)" height="48" id="javax.swing.ImageIcon" style="stroke:#A80036;stroke-width:1.5;" width="90" x="2490" y="166"/>
        <ellipse cx="2505" cy="182" fill="#ADD1B2" rx="11" ry="11" style="stroke:#A80036;stroke-width:1.0;"/>
        <path d="M2507.7656,177.875 Q2507.9219,177.6563 2508.1094,177.5469 Q2508.2969,177.4375 2508.5156,177.4375 Q2508.8906,177.4375 2509.125,177.7031 Q2509.3594,177.9531 2509.3594,178.5625 L2509.3594,180.0156 Q2509.3594,180.625 2509.125,180.8906 Q2508.8906,181.1563 2508.5156,181.1563 Q2508.1719,181.1563 2507.9688,180.9531 Q2507.7656,180.7656 2507.6563,180.25 Q2507.6094,179.8906 2507.4219,179.7031 Q2507.0938,179.3281 2506.4844,179.1094 Q2505.875,178.8906 2505.25,178.8906 Q2504.4844,178.8906 2503.8438,179.2188 Q2503.2188,179.5469 2502.7188,180.2969 Q2502.2344,181.0469 2502.2344,182.0781 L2502.2344,183.1719 Q2502.2344,184.4063 2503.125,185.2344 Q2504.0156,186.0469 2505.6094,186.0469 Q2506.5469,186.0469 2507.2031,185.7969 Q2507.5938,185.6406 2508.0156,185.2031 Q2508.2813,184.9375 2508.4219,184.8594 Q2508.5781,184.7813 2508.7813,184.7813 Q2509.1094,184.7813 2509.3594,185.0469 Q2509.625,185.2969 2509.625,185.6406 Q2509.625,185.9844 2509.2813,186.3906 Q2508.7813,186.9688 2507.9844,187.2969 Q2506.9063,187.75 2505.6094,187.75 Q2504.0938,187.75 2502.8906,187.125 Q2501.9063,186.625 2501.2188,185.5625 Q2500.5313,184.4844 2500.5313,183.2031 L2500.5313,182.0469 Q2500.5313,180.7188 2501.1406,179.5781 Q2501.7656,178.4219 2502.8594,177.8125 Q2503.9531,177.1875 2505.1875,177.1875 Q2505.9219,177.1875 2506.5625,177.3594 Q2507.2188,177.5156 2507.7656,177.875 Z " fill="#000000"/>
        <text fill="#000000" font-family="sans-serif" font-size="12" lengthAdjust="spacing" textLength="58" x="2519" y="186.9102">ImageIcon</text>
        <line style="stroke:#A80036;stroke-width:1.5;" x1="2491" x2="2579" y1="198" y2="198"/>
        <line style="stroke:#A80036;stroke-width:1.5;" x1="2491" x2="2579" y1="206" y2="206"/>
        <!--MD5=[faa5ce5f1ecdf3eea8d350f666aafad4]
class javax.swing.JFileChooser-->
        <rect codeLine="19" fill="#FEFECE" filter="url(#ff8bs5pfnajon)" height="48" id="javax.swing.JFileChooser" style="stroke:#A80036;stroke-width:1.5;" width="106" x="2349" y="166"/>
        <ellipse cx="2364" cy="182" fill="#ADD1B2" rx="11" ry="11" style="stroke:#A80036;stroke-width:1.0;"/>
        <path d="M2366.7656,177.875 Q2366.9219,177.6563 2367.1094,177.5469 Q2367.2969,177.4375 2367.5156,177.4375 Q2367.8906,177.4375 2368.125,177.7031 Q2368.3594,177.9531 2368.3594,178.5625 L2368.3594,180.0156 Q2368.3594,180.625 2368.125,180.8906 Q2367.8906,181.1563 2367.5156,181.1563 Q2367.1719,181.1563 2366.9688,180.9531 Q2366.7656,180.7656 2366.6563,180.25 Q2366.6094,179.8906 2366.4219,179.7031 Q2366.0938,179.3281 2365.4844,179.1094 Q2364.875,178.8906 2364.25,178.8906 Q2363.4844,178.8906 2362.8438,179.2188 Q2362.2188,179.5469 2361.7188,180.2969 Q2361.2344,181.0469 2361.2344,182.0781 L2361.2344,183.1719 Q2361.2344,184.4063 2362.125,185.2344 Q2363.0156,186.0469 2364.6094,186.0469 Q2365.5469,186.0469 2366.2031,185.7969 Q2366.5938,185.6406 2367.0156,185.2031 Q2367.2813,184.9375 2367.4219,184.8594 Q2367.5781,184.7813 2367.7813,184.7813 Q2368.1094,184.7813 2368.3594,185.0469 Q2368.625,185.2969 2368.625,185.6406 Q2368.625,185.9844 2368.2813,186.3906 Q2367.7813,186.9688 2366.9844,187.2969 Q2365.9063,187.75 2364.6094,187.75 Q2363.0938,187.75 2361.8906,187.125 Q2360.9063,186.625 2360.2188,185.5625 Q2359.5313,184.4844 2359.5313,183.2031 L2359.5313,182.0469 Q2359.5313,180.7188 2360.1406,179.5781 Q2360.7656,178.4219 2361.8594,177.8125 Q2362.9531,177.1875 2364.1875,177.1875 Q2364.9219,177.1875 2365.5625,177.3594 Q2366.2188,177.5156 2366.7656,177.875 Z " fill="#000000"/>
        <text fill="#000000" font-family="sans-serif" font-size="12" lengthAdjust="spacing" textLength="74" x="2378" y="186.9102">JFileChooser</text>
        <line style="stroke:#A80036;stroke-width:1.5;" x1="2350" x2="2454" y1="198" y2="198"/>
        <line style="stroke:#A80036;stroke-width:1.5;" x1="2350" x2="2454" y1="206" y2="206"/>
        <!--MD5=[18a7562403221f513ca44e0f82c4c17a]
class javax.swing.JFrame-->
        <rect codeLine="20" fill="#FEFECE" filter="url(#ff8bs5pfnajon)" height="48" id="javax.swing.JFrame" style="stroke:#A80036;stroke-width:1.5;" width="74" x="2240" y="166"/>
        <ellipse cx="2255" cy="182" fill="#ADD1B2" rx="11" ry="11" style="stroke:#A80036;stroke-width:1.0;"/>
        <path d="M2257.7656,177.875 Q2257.9219,177.6563 2258.1094,177.5469 Q2258.2969,177.4375 2258.5156,177.4375 Q2258.8906,177.4375 2259.125,177.7031 Q2259.3594,177.9531 2259.3594,178.5625 L2259.3594,180.0156 Q2259.3594,180.625 2259.125,180.8906 Q2258.8906,181.1563 2258.5156,181.1563 Q2258.1719,181.1563 2257.9688,180.9531 Q2257.7656,180.7656 2257.6563,180.25 Q2257.6094,179.8906 2257.4219,179.7031 Q2257.0938,179.3281 2256.4844,179.1094 Q2255.875,178.8906 2255.25,178.8906 Q2254.4844,178.8906 2253.8438,179.2188 Q2253.2188,179.5469 2252.7188,180.2969 Q2252.2344,181.0469 2252.2344,182.0781 L2252.2344,183.1719 Q2252.2344,184.4063 2253.125,185.2344 Q2254.0156,186.0469 2255.6094,186.0469 Q2256.5469,186.0469 2257.2031,185.7969 Q2257.5938,185.6406 2258.0156,185.2031 Q2258.2813,184.9375 2258.4219,184.8594 Q2258.5781,184.7813 2258.7813,184.7813 Q2259.1094,184.7813 2259.3594,185.0469 Q2259.625,185.2969 2259.625,185.6406 Q2259.625,185.9844 2259.2813,186.3906 Q2258.7813,186.9688 2257.9844,187.2969 Q2256.9063,187.75 2255.6094,187.75 Q2254.0938,187.75 2252.8906,187.125 Q2251.9063,186.625 2251.2188,185.5625 Q2250.5313,184.4844 2250.5313,183.2031 L2250.5313,182.0469 Q2250.5313,180.7188 2251.1406,179.5781 Q2251.7656,178.4219 2252.8594,177.8125 Q2253.9531,177.1875 2255.1875,177.1875 Q2255.9219,177.1875 2256.5625,177.3594 Q2257.2188,177.5156 2257.7656,177.875 Z " fill="#000000"/>
        <text fill="#000000" font-family="sans-serif" font-size="12" lengthAdjust="spacing" textLength="42" x="2269" y="186.9102">JFrame</text>
        <line style="stroke:#A80036;stroke-width:1.5;" x1="2241" x2="2313" y1="198" y2="198"/>
        <line style="stroke:#A80036;stroke-width:1.5;" x1="2241" x2="2313" y1="206" y2="206"/>
        <!--MD5=[71876f315f3e2c5e505c34e3685c085d]
link gneradorqr.QR to java.lang.SuppressWarnings-->
        <path codeLine="21" d="M1463.74,67.33 C1295.15,69.64 335.87,84.35 212,122 C183.92,130.53 155.72,147.93 134.9,162.86 " fill="none" id="gneradorqr.QR-to-java.lang.SuppressWarnings" style="stroke:#A80036;stroke-width:1.0;stroke-dasharray:7.0,7.0;"/>
        <polygon fill="#A80036" points="130.84,165.8,140.4752,163.7596,134.8892,162.8668,135.7821,157.2809,130.84,165.8" style="stroke:#A80036;stroke-width:1.0;"/>
        <!--MD5=[2fe13dec7ac05866b312d7dba9bd8d49]
link gneradorqr.QR to com.google.zxing.BarcodeFormat-->
        <path codeLine="22" d="M1463.61,67.69 C1339.45,71.21 795.66,88.31 630,122 C584.19,131.32 534.42,149.04 497.17,163.92 " fill="none" id="gneradorqr.QR-to-com.google.zxing.BarcodeFormat" style="stroke:#A80036;stroke-width:1.0;stroke-dasharray:7.0,7.0;"/>
        <polygon fill="#A80036" points="492.23,165.91,502.0728,166.2553,496.8674,164.0408,499.082,158.8354,492.23,165.91" style="stroke:#A80036;stroke-width:1.0;"/>
        <!--MD5=[c04b8d8389129ea6718b3f54cc586608]
link gneradorqr.QR to com.google.zxing.WriterException-->
        <path codeLine="23" d="M1463.94,67.23 C1307.49,68.82 468.18,79.3 363,122 C341.97,130.54 322.82,147.5 309.01,162.22 " fill="none" id="gneradorqr.QR-to-com.google.zxing.WriterException" style="stroke:#A80036;stroke-width:1.0;stroke-dasharray:7.0,7.0;"/>
        <polygon fill="#A80036" points="305.62,165.9,314.6618,161.9955,309.0096,162.2243,308.7808,156.5721,305.62,165.9" style="stroke:#A80036;stroke-width:1.0;"/>
        <!--MD5=[f5aa59853795de4b69be093f483448de]
link gneradorqr.QR to com.google.zxing.common.BitMatrix-->
        <path codeLine="24" d="M1463.77,67.71 C1356.59,70.92 938.83,85.58 813,122 C781.47,131.12 748.73,148.43 724.26,163.16 " fill="none" id="gneradorqr.QR-to-com.google.zxing.common.BitMatrix" style="stroke:#A80036;stroke-width:1.0;stroke-dasharray:7.0,7.0;"/>
        <polygon fill="#A80036" points="719.78,165.88,729.5476,164.6173,724.051,163.2803,725.388,157.7837,719.78,165.88" style="stroke:#A80036;stroke-width:1.0;"/>
        <!--MD5=[b84f6ca0f21baabcc6651ca30bf36327]
link gneradorqr.QR to com.google.zxing.qrcode.QRCodeWriter-->
        <path codeLine="25" d="M1463.81,68.07 C1374.17,72.15 1071.23,88.18 981,122 C956.58,131.15 932.53,147.96 914.61,162.45 " fill="none" id="gneradorqr.QR-to-com.google.zxing.qrcode.QRCodeWriter" style="stroke:#A80036;stroke-width:1.0;stroke-dasharray:7.0,7.0;"/>
        <polygon fill="#A80036" points="910.65,165.69,920.147,163.081,914.5179,162.5215,915.0774,156.8924,910.65,165.69" style="stroke:#A80036;stroke-width:1.0;"/>
        <!--MD5=[bcacda1a9199112a2744eaf3b2cacb31]
link gneradorqr.QR to java.awt.Color-->
        <path codeLine="26" d="M1463.86,72.57 C1432.16,80.34 1376.76,96.41 1335,122 C1317.3,132.85 1300.28,148.65 1287.35,162.19 " fill="none" id="gneradorqr.QR-to-java.awt.Color" style="stroke:#A80036;stroke-width:1.0;stroke-dasharray:7.0,7.0;"/>
        <polygon fill="#A80036" points="1283.81,165.94,1292.8911,162.1277,1287.2368,162.299,1287.0655,156.6447,1283.81,165.94" style="stroke:#A80036;stroke-width:1.0;"/>
        <!--MD5=[04c25c9bf51fa67426cfe6c7d15cee6e]
link gneradorqr.QR to java.awt.Graphics2D-->
        <path codeLine="27" d="M1463.65,67.3 C1413.41,68.9 1298.88,77.57 1216,122 C1197.84,131.73 1181.42,147.98 1169.38,162.03 " fill="none" id="gneradorqr.QR-to-java.awt.Graphics2D" style="stroke:#A80036;stroke-width:1.0;stroke-dasharray:7.0,7.0;"/>
        <polygon fill="#A80036" points="1166.1,165.93,1174.9584,161.6254,1169.322,162.1066,1168.8408,156.4702,1166.1,165.93" style="stroke:#A80036;stroke-width:1.0;"/>
        <!--MD5=[5c25b2cd328e8b91a36b1677146e60cf]
link gneradorqr.QR to java.awt.Image-->
        <path codeLine="28" d="M1463.76,67.94 C1385.56,71.25 1148.56,84.23 1083,122 C1067.04,131.19 1054.27,147.39 1045.37,161.56 " fill="none" id="gneradorqr.QR-to-java.awt.Image" style="stroke:#A80036;stroke-width:1.0;stroke-dasharray:7.0,7.0;"/>
        <polygon fill="#A80036" points="1042.74,165.88,1050.8583,160.3039,1045.3565,161.6193,1044.0411,156.1175,1042.74,165.88" style="stroke:#A80036;stroke-width:1.0;"/>
        <!--MD5=[e6ebe450304c02493cc12dfe00a0ae63]
link gneradorqr.QR to java.awt.image.BufferedImage-->
        <path codeLine="29" d="M1473.57,90.23 C1460.06,110.59 1440.41,140.18 1426.15,161.67 " fill="none" id="gneradorqr.QR-to-java.awt.image.BufferedImage" style="stroke:#A80036;stroke-width:1.0;stroke-dasharray:7.0,7.0;"/>
        <polygon fill="#A80036" points="1423.37,165.85,1431.6779,160.5605,1426.1336,161.6832,1425.011,156.1388,1423.37,165.85" style="stroke:#A80036;stroke-width:1.0;"/>
        <!--MD5=[58ff4c2fe44e57c4debc9c94fb750f67]
link gneradorqr.QR to java.io.File-->
        <path codeLine="30" d="M1504.33,90.23 C1511.59,99.25 1521.06,108.67 1532,114 C1552.84,124.15 1616.04,110.22 1636,122 C1650.97,130.83 1661.8,146.99 1668.97,161.23 " fill="none" id="gneradorqr.QR-to-java.io.File" style="stroke:#A80036;stroke-width:1.0;stroke-dasharray:7.0,7.0;"/>
        <polygon fill="#A80036" points="1671.27,165.97,1670.9734,156.1256,1669.1026,161.4642,1663.7641,159.5934,1671.27,165.97" style="stroke:#A80036;stroke-width:1.0;"/>
        <!--MD5=[ecc25e7a838cbff85ecf13768b2a6021]
link gneradorqr.QR to java.io.IOException-->
        <path codeLine="31" d="M1504.43,90.23 C1517.94,110.59 1537.59,140.18 1551.85,161.67 " fill="none" id="gneradorqr.QR-to-java.io.IOException" style="stroke:#A80036;stroke-width:1.0;stroke-dasharray:7.0,7.0;"/>
        <polygon fill="#A80036" points="1554.63,165.85,1552.989,156.1388,1551.8664,161.6832,1546.3221,160.5605,1554.63,165.85" style="stroke:#A80036;stroke-width:1.0;"/>
        <!--MD5=[71bf2c6d060fc66447696a89233a5e99]
link gneradorqr.QR to java.util.UUID-->
        <path codeLine="32" d="M1504.24,90.41 C1511.48,99.46 1520.97,108.86 1532,114 C1570.31,131.84 1683.06,105.57 1722,122 C1741.98,130.43 1759.73,147.17 1772.48,161.81 " fill="none" id="gneradorqr.QR-to-java.util.UUID" style="stroke:#A80036;stroke-width:1.0;stroke-dasharray:7.0,7.0;"/>
        <polygon fill="#A80036" points="1775.94,165.88,1773.1404,156.4374,1772.6943,162.0767,1767.0551,161.6306,1775.94,165.88" style="stroke:#A80036;stroke-width:1.0;"/>
        <!--MD5=[b96dc60efa247b412a2030919d6ef25c]
link gneradorqr.QR to java.util.logging.Level-->
        <path codeLine="33" d="M1503.79,90.05 C1511.07,99.27 1520.71,108.9 1532,114 C1576.26,133.98 1926.01,99.41 1969,122 C1985.07,130.44 1997,146.97 2004.95,161.5 " fill="none" id="gneradorqr.QR-to-java.util.logging.Level" style="stroke:#A80036;stroke-width:1.0;stroke-dasharray:7.0,7.0;"/>
        <polygon fill="#A80036" points="2007.29,165.94,2006.6288,156.1134,2004.9571,161.5176,1999.5529,159.8459,2007.29,165.94" style="stroke:#A80036;stroke-width:1.0;"/>
        <!--MD5=[343582bc3c0824879c3e605a1d7660a4]
link gneradorqr.QR to java.util.logging.Logger-->
        <path codeLine="34" d="M1503.81,90 C1511.09,99.22 1520.73,108.86 1532,114 C1563.15,128.21 1808.14,109.48 1840,122 C1861.13,130.3 1880.27,147.26 1894.06,162.04 " fill="none" id="gneradorqr.QR-to-java.util.logging.Logger" style="stroke:#A80036;stroke-width:1.0;stroke-dasharray:7.0,7.0;"/>
        <polygon fill="#A80036" points="1897.45,165.74,1894.3269,156.3994,1894.0753,162.0507,1888.424,161.799,1897.45,165.74" style="stroke:#A80036;stroke-width:1.0;"/>
        <!--MD5=[b05655ee9e3d8f3682f558971d07f1f5]
link gneradorqr.QR to javax.imageio.ImageIO-->
        <path codeLine="35" d="M1503.79,90.06 C1511.06,99.29 1520.7,108.92 1532,114 C1558.96,126.12 2036.3,111.69 2064,122 C2086.07,130.21 2106.35,147.36 2120.97,162.25 " fill="none" id="gneradorqr.QR-to-javax.imageio.ImageIO" style="stroke:#A80036;stroke-width:1.0;stroke-dasharray:7.0,7.0;"/>
        <polygon fill="#A80036" points="2124.57,165.98,2121.2022,156.7249,2121.0993,162.3808,2115.4434,162.2779,2124.57,165.98" style="stroke:#A80036;stroke-width:1.0;"/>
        <!--MD5=[82ff02d6bfa8565ab0d9376218683ee1]
link gneradorqr.QR to javax.swing.ImageIcon-->
        <path codeLine="36" d="M1503.77,90.1 C1511.04,99.33 1520.69,108.96 1532,114 C1579.75,135.28 2425.19,100.86 2473,122 C2491.55,130.2 2507.05,146.95 2517.91,161.64 " fill="none" id="gneradorqr.QR-to-javax.swing.ImageIcon" style="stroke:#A80036;stroke-width:1.0;stroke-dasharray:7.0,7.0;"/>
        <polygon fill="#A80036" points="2520.85,165.72,2518.8258,156.0814,2517.9236,161.6659,2512.3391,160.7637,2520.85,165.72" style="stroke:#A80036;stroke-width:1.0;"/>
        <!--MD5=[bc6d516489dc9a9d83c4cd6f0a375726]
link gneradorqr.QR to javax.swing.JFileChooser-->
        <path codeLine="37" d="M1503.77,90.09 C1511.05,99.32 1520.69,108.95 1532,114 C1572.59,132.12 2290.84,105.24 2332,122 C2351.94,130.12 2369.43,146.86 2381.95,161.58 " fill="none" id="gneradorqr.QR-to-javax.swing.JFileChooser" style="stroke:#A80036;stroke-width:1.0;stroke-dasharray:7.0,7.0;"/>
        <polygon fill="#A80036" points="2385.34,165.67,2382.6547,156.1943,2382.1405,161.8277,2376.507,161.3135,2385.34,165.67" style="stroke:#A80036;stroke-width:1.0;"/>
        <!--MD5=[ae58fcfa2ae9c400c3f8480ffa070f96]
link gneradorqr.QR to javax.swing.JFrame-->
        <path codeLine="38" d="M1503.78,90.08 C1511.05,99.31 1520.69,108.94 1532,114 C1565.87,129.16 2165.32,108.79 2200,122 C2216.42,128.25 2231.67,139.71 2244.19,151.41 " fill="none" id="gneradorqr.QR-to-javax.swing.JFrame" style="stroke:#A80036;stroke-width:1.0;"/>
        <polygon fill="none" points="2249.47,146.79,2258.48,165.97,2239.48,156.6,2249.47,146.79" style="stroke:#A80036;stroke-width:1.0;"/>
        <!--MD5=[716fb7e75eabd79e8c1dda565fa2b89f]
@startuml
annotation java.lang.SuppressWarnings
class com.google.zxing.BarcodeFormat
class com.google.zxing.WriterException
class com.google.zxing.common.BitMatrix
class com.google.zxing.qrcode.QRCodeWriter
class gneradorqr.GneradorQR
class gneradorqr.QR
class java.awt.Color
class java.awt.Graphics2D
class java.awt.Image
class java.awt.image.BufferedImage
class java.io.File
class java.io.IOException
class java.util.UUID
class java.util.logging.Level
class java.util.logging.Logger
class javax.imageio.ImageIO
class javax.swing.ImageIcon
class javax.swing.JFileChooser
class javax.swing.JFrame
gneradorqr.QR ..> java.lang.SuppressWarnings
gneradorqr.QR ..> com.google.zxing.BarcodeFormat
gneradorqr.QR ..> com.google.zxing.WriterException
gneradorqr.QR ..> com.google.zxing.common.BitMatrix
gneradorqr.QR ..> com.google.zxing.qrcode.QRCodeWriter
gneradorqr.QR ..> java.awt.Color
gneradorqr.QR ..> java.awt.Graphics2D
gneradorqr.QR ..> java.awt.Image
gneradorqr.QR ..> java.awt.image.BufferedImage
gneradorqr.QR ..> java.io.File
gneradorqr.QR ..> java.io.IOException
gneradorqr.QR ..> java.util.UUID
gneradorqr.QR ..> java.util.logging.Level
gneradorqr.QR ..> java.util.logging.Logger
gneradorqr.QR ..> javax.imageio.ImageIO
gneradorqr.QR ..> javax.swing.ImageIcon
gneradorqr.QR ..> javax.swing.JFileChooser
gneradorqr.QR - -|> javax.swing.JFrame
@enduml

PlantUML version 1.2021.3(Mon Mar 22 10:53:19 CST 2021)
(GPL source distribution)
Java Runtime: Java(TM) SE Runtime Environment
JVM: Java HotSpot(TM) 64-Bit Server VM
Default Encoding: Cp1252
Language: en
Country: US
-->
    </g>
</svg>
